<?xml version="1.0" encoding="utf-8"?>
<!-- Generator: Adobe Illustrator 21.0.0, SVG Export Plug-In . SVG Version: 6.00 Build 0)  -->
<svg version="1.1" id="Layer_1" xmlns="http://www.w3.org/2000/svg" xmlns:xlink="http://www.w3.org/1999/xlink" x="0px" y="0px"
	 viewBox="0 0 560 560" style="enable-background:new 0 0 560 560;" xml:space="preserve">
<style type="text/css">
	.st0{fill:none;stroke:#808080;stroke-width:9;stroke-miterlimit:10;}
	.st1{fill:#B3B3B3;}
</style>
<g>
	<g>
		<path d="M533,27v506H27V27H533 M542,18H18v524h524V18L542,18z"/>
	</g>
	<g>
		<line class="st0" x1="237" y1="291.5" x2="325" y2="291.5"/>
	</g>
	<g>
		<line class="st0" x1="281" y1="335.5" x2="281" y2="247.5"/>
	</g>
	<g>
		<path class="st1" d="M82.7,442.1c1.4-0.3,3.5-0.5,5.7-0.5c3.1,0,5.1,0.5,6.7,1.8c1.3,0.9,2,2.4,2,4.3c0,2.3-1.5,4.4-4.1,5.3v0.1
			c2.3,0.6,5,2.5,5,6.1c0,2.1-0.8,3.7-2.1,4.9c-1.7,1.5-4.4,2.3-8.4,2.3c-2.2,0-3.8-0.1-4.9-0.3V442.1z M85.9,452h2.8
			c3.3,0,5.3-1.7,5.3-4.1c0-2.8-2.2-4-5.3-4c-1.4,0-2.3,0.1-2.8,0.2V452z M85.9,463.6c0.6,0.1,1.5,0.1,2.6,0.1
			c3.2,0,6.2-1.2,6.2-4.7c0-3.3-2.8-4.7-6.3-4.7h-2.6V463.6z"/>
		<path class="st1" d="M102.1,454c0-2.1,0-3.8-0.1-5.4h2.8l0.1,3.4h0.1c0.8-2.3,2.7-3.8,4.8-3.8c0.4,0,0.6,0,0.9,0.1v3
			c-0.3-0.1-0.6-0.1-1.1-0.1c-2.2,0-3.8,1.7-4.2,4.1c-0.1,0.4-0.1,0.9-0.1,1.5v9.3h-3.1V454z"/>
		<path class="st1" d="M129.3,457.1c0,6.4-4.5,9.3-8.7,9.3c-4.7,0-8.4-3.5-8.4-9c0-5.8,3.8-9.3,8.6-9.3
			C125.9,448.2,129.3,451.8,129.3,457.1z M115.5,457.3c0,3.8,2.2,6.7,5.3,6.7c3,0,5.3-2.8,5.3-6.8c0-3-1.5-6.7-5.2-6.7
			C117.1,450.6,115.5,454,115.5,457.3z"/>
		<path class="st1" d="M134.3,448.6l2.3,8.9c0.5,1.9,1,3.7,1.3,5.5h0.1c0.4-1.8,1-3.6,1.5-5.5l2.8-8.9h2.7l2.7,8.7
			c0.6,2.1,1.2,3.9,1.5,5.7h0.1c0.3-1.8,0.8-3.6,1.3-5.7l2.5-8.7h3.1l-5.6,17.4h-2.9l-2.7-8.3c-0.6-1.9-1.1-3.7-1.5-5.7h-0.1
			c-0.4,2.1-1,3.9-1.6,5.8l-2.8,8.3h-2.9l-5.3-17.4H134.3z"/>
		<path class="st1" d="M158.9,462.8c0.9,0.6,2.6,1.3,4.2,1.3c2.3,0,3.4-1.2,3.4-2.6c0-1.5-0.9-2.3-3.2-3.2c-3.1-1.1-4.6-2.8-4.6-4.9
			c0-2.8,2.3-5.1,6-5.1c1.8,0,3.3,0.5,4.3,1.1l-0.8,2.3c-0.7-0.4-1.9-1-3.6-1c-1.9,0-2.9,1.1-2.9,2.4c0,1.4,1,2.1,3.3,3
			c3,1.2,4.6,2.7,4.6,5.3c0,3.1-2.4,5.2-6.5,5.2c-1.9,0-3.7-0.5-4.9-1.2L158.9,462.8z"/>
		<path class="st1" d="M175.4,457.9c0.1,4.3,2.8,6,6,6c2.3,0,3.6-0.4,4.8-0.9l0.5,2.3c-1.1,0.5-3,1.1-5.8,1.1
			c-5.4,0-8.6-3.5-8.6-8.8c0-5.3,3.1-9.4,8.2-9.4c5.7,0,7.2,5,7.2,8.2c0,0.6-0.1,1.2-0.1,1.5H175.4z M184.6,455.6
			c0-2-0.8-5.1-4.4-5.1c-3.2,0-4.6,3-4.9,5.1H184.6z"/>
		<path class="st1" d="M191.6,454c0-2.1,0-3.8-0.1-5.4h2.8l0.1,3.4h0.1c0.8-2.3,2.7-3.8,4.8-3.8c0.4,0,0.6,0,0.9,0.1v3
			c-0.3-0.1-0.6-0.1-1.1-0.1c-2.2,0-3.8,1.7-4.2,4.1c-0.1,0.4-0.1,0.9-0.1,1.5v9.3h-3.1V454z"/>
		<path class="st1" d="M226.8,457.1c0,6.4-4.5,9.3-8.7,9.3c-4.7,0-8.4-3.5-8.4-9c0-5.8,3.8-9.3,8.6-9.3
			C223.4,448.2,226.8,451.8,226.8,457.1z M213,457.3c0,3.8,2.2,6.7,5.3,6.7c3,0,5.3-2.8,5.3-6.8c0-3-1.5-6.7-5.2-6.7
			C214.6,450.6,213,454,213,457.3z"/>
		<path class="st1" d="M230.8,453.3c0-1.8,0-3.3-0.1-4.7h2.8l0.2,2.9h0.1c0.9-1.7,2.9-3.3,5.8-3.3c2.4,0,6.2,1.4,6.2,7.4V466h-3.2
			v-10c0-2.8-1-5.1-4-5.1c-2.1,0-3.7,1.5-4.2,3.2c-0.1,0.4-0.2,0.9-0.2,1.5V466h-3.2V453.3z"/>
		<path class="st1" d="M259.6,448.6l3.8,10.3c0.4,1.2,0.8,2.5,1.1,3.6h0.1c0.3-1,0.7-2.4,1.1-3.6l3.5-10.2h3.3l-4.8,12.4
			c-2.3,6-3.8,9-6,10.9c-1.5,1.4-3.1,1.9-3.9,2.1l-0.8-2.7c0.8-0.3,1.8-0.8,2.8-1.5c0.9-0.7,1.9-1.9,2.7-3.5
			c0.1-0.3,0.3-0.6,0.3-0.8s-0.1-0.4-0.2-0.8l-6.4-16.1H259.6z"/>
		<path class="st1" d="M290.8,457.1c0,6.4-4.5,9.3-8.7,9.3c-4.7,0-8.4-3.5-8.4-9c0-5.8,3.8-9.3,8.6-9.3
			C287.4,448.2,290.8,451.8,290.8,457.1z M277,457.3c0,3.8,2.2,6.7,5.3,6.7c3,0,5.3-2.8,5.3-6.8c0-3-1.5-6.7-5.2-6.7
			C278.6,450.6,277,454,277,457.3z"/>
		<path class="st1" d="M309.4,461.2c0,1.8,0,3.4,0.1,4.8h-2.8l-0.2-2.8h-0.1c-0.8,1.4-2.7,3.2-5.8,3.2c-2.7,0-6-1.5-6-7.6v-10.2h3.2
			v9.6c0,3.3,1,5.5,3.9,5.5c2.1,0,3.6-1.5,4.2-2.9c0.2-0.5,0.3-1,0.3-1.6v-10.7h3.2V461.2z"/>
		<path class="st1" d="M314.6,454c0-2.1,0-3.8-0.1-5.4h2.8l0.1,3.4h0.1c0.8-2.3,2.7-3.8,4.8-3.8c0.4,0,0.6,0,0.9,0.1v3
			c-0.3-0.1-0.6-0.1-1.1-0.1c-2.2,0-3.8,1.7-4.2,4.1c-0.1,0.4-0.1,0.9-0.1,1.5v9.3h-3.1V454z"/>
		<path class="st1" d="M346.4,465.4c-0.8,0.4-2.7,1-5,1c-5.3,0-8.7-3.6-8.7-8.9c0-5.4,3.7-9.3,9.4-9.3c1.9,0,3.5,0.5,4.4,0.9
			l-0.7,2.4c-0.8-0.4-1.9-0.8-3.7-0.8c-4,0-6.2,3-6.2,6.6c0,4,2.6,6.5,6,6.5c1.8,0,3-0.5,3.9-0.9L346.4,465.4z"/>
		<path class="st1" d="M365.7,457.1c0,6.4-4.5,9.3-8.7,9.3c-4.7,0-8.4-3.5-8.4-9c0-5.8,3.8-9.3,8.6-9.3
			C362.3,448.2,365.7,451.8,365.7,457.1z M351.9,457.3c0,3.8,2.2,6.7,5.3,6.7c3,0,5.3-2.8,5.3-6.8c0-3-1.5-6.7-5.2-6.7
			C353.5,450.6,351.9,454,351.9,457.3z"/>
		<path class="st1" d="M369.7,453.3c0-1.8,0-3.3-0.1-4.7h2.8l0.1,2.8h0.1c1-1.7,2.6-3.2,5.5-3.2c2.4,0,4.2,1.4,4.9,3.5h0.1
			c0.5-1,1.2-1.7,1.9-2.3c1-0.8,2.2-1.2,3.9-1.2c2.3,0,5.7,1.5,5.7,7.6V466h-3.1v-9.9c0-3.3-1.2-5.4-3.8-5.4c-1.8,0-3.2,1.3-3.7,2.9
			c-0.1,0.4-0.3,1-0.3,1.6V466h-3.1v-10.4c0-2.8-1.2-4.8-3.6-4.8c-2,0-3.4,1.6-3.9,3.2c-0.2,0.5-0.3,1-0.3,1.5V466h-3.1V453.3z"/>
		<path class="st1" d="M399.7,454.3c0-2.2-0.1-4-0.1-5.7h2.8l0.1,3h0.1c1.3-2.1,3.3-3.4,6.2-3.4c4.2,0,7.4,3.6,7.4,8.9
			c0,6.3-3.8,9.4-7.9,9.4c-2.3,0-4.3-1-5.4-2.7h-0.1v9.5h-3.1V454.3z M402.8,458.9c0,0.5,0.1,0.9,0.1,1.3c0.6,2.2,2.5,3.7,4.8,3.7
			c3.3,0,5.3-2.7,5.3-6.7c0-3.5-1.8-6.5-5.2-6.5c-2.2,0-4.2,1.5-4.8,3.9c-0.1,0.4-0.2,0.9-0.2,1.3V458.9z"/>
		<path class="st1" d="M434.8,461.2c0,1.8,0,3.4,0.1,4.8h-2.8l-0.2-2.8h-0.1c-0.8,1.4-2.7,3.2-5.8,3.2c-2.7,0-6-1.5-6-7.6v-10.2h3.2
			v9.6c0,3.3,1,5.5,3.9,5.5c2.1,0,3.6-1.5,4.2-2.9c0.2-0.5,0.3-1,0.3-1.6v-10.7h3.2V461.2z"/>
		<path class="st1" d="M443.8,443.6v5h4.5v2.4h-4.5v9.4c0,2.2,0.6,3.4,2.4,3.4c0.8,0,1.4-0.1,1.8-0.2l0.1,2.4
			c-0.6,0.3-1.6,0.4-2.8,0.4c-1.5,0-2.7-0.5-3.4-1.3c-0.9-0.9-1.2-2.5-1.2-4.5V451h-2.7v-2.4h2.7v-4.2L443.8,443.6z"/>
		<path class="st1" d="M453.5,457.9c0.1,4.3,2.8,6,6,6c2.3,0,3.6-0.4,4.8-0.9l0.5,2.3c-1.1,0.5-3,1.1-5.8,1.1
			c-5.4,0-8.6-3.5-8.6-8.8c0-5.3,3.1-9.4,8.2-9.4c5.7,0,7.2,5,7.2,8.2c0,0.6-0.1,1.2-0.1,1.5H453.5z M462.8,455.6
			c0-2-0.8-5.1-4.4-5.1c-3.2,0-4.6,3-4.9,5.1H462.8z"/>
		<path class="st1" d="M469.8,454c0-2.1,0-3.8-0.1-5.4h2.8l0.1,3.4h0.1c0.8-2.3,2.7-3.8,4.8-3.8c0.4,0,0.6,0,0.9,0.1v3
			c-0.3-0.1-0.6-0.1-1.1-0.1c-2.2,0-3.8,1.7-4.2,4.1c-0.1,0.4-0.1,0.9-0.1,1.5v9.3h-3.1V454z"/>
	</g>
</g>
</svg>
